#N canvas 638 229 814 715 12;
#X obj 93 255 mtof;
#X obj 93 325 phasor~;
#X obj 90 435 *~;
#X obj 90 501 vcf~ 1;
#X text 274 307 volume envelope;
#X text 460 174 octave;
#X text 327 237 base freq;
#X floatatom 403 227 5 0 0 0 - - -;
#X obj 461 237 pow 2;
#X floatatom 461 267 5 0 0 0 - - -;
#X obj 406 297 *;
#X obj 405 345 -;
#X floatatom 407 390 5 0 0 0 - - -;
#X text 400 370 max env adds to baseline;
#X obj 408 419 sig~;
#X obj 408 455 *~;
#X obj 408 481 +~;
#X obj 403 266 t f f f;
#X text 16 -1 trigger envs;
#X text 525 252 Filter env stuff;
#X obj 171 411 adsr 100 100 0 100 1000 4000;
#X obj 482 394 adsr 100 0 0 100 1000 100000;
#X text 525 417 filter has a huge;
#X text 526 437 release so that;
#X text 527 454 we basically;
#X text 528 472 eliminate it;
#X text 30 607 Created by: Matthew Harris;
#X text 30 587 Created on: 20/05/2023;
#X text 396 571 With controls for midi note \, volume ADSR;
#X text 395 587 Filter frequency and a filter ADSR envelope;
#X obj 23 140 s \$0-trigger;
#X obj 171 382 r \$0-trigger;
#X obj 482 348 r \$0-trigger;
#X obj 409 512 s~ \$0-freq;
#X obj 109 468 r~ \$0-freq;
#X text 131 201 midi note;
#X obj 96 203 f \$1;
#X obj 89 518 outlet~;
#X text 395 613 Note: Sends out a value \, does not play a;
#X text 396 631 sound by itself!;
#X obj 24 18 inlet;
#X floatatom 93 228 5 0 0 0 - - -;
#X obj 288 69 loadbang;
#X obj 403 199 f \$2;
#X obj 461 198 f \$3;
#X obj 288 95 t b b b;
#X text 396 657 TODO: ENV Input Controls;
#X text 396 553 A simple two voice synth;
#X obj 43 345 osc~;
#X obj 72 375 +~;
#X text 10 303 Harmonicity;
#X text 590 53 vibrato freq (hz);
#X obj 549 82 osc~;
#X text 659 84 vibrato depth;
#X obj 579 117 *~;
#X obj 82 286 +~;
#X obj 46 321 *~ 1;
#X obj 142 253 r~ \$0-vibrato;
#X msg 548 52 0.5;
#X msg 610 78 0.1;
#X obj 547 15 loadbang;
#X obj 578 148 s~ \$0-vibrato;
#X obj 232 8 inlet;
#X obj 232 36 s \$0-hold-time;
#X obj 642 346 r \$0-hold-time;
#X obj 603 347 f \$4;
#X obj 289 276 r \$0-hold-time;
#X obj 250 277 f \$4;
#X obj 601 308 loadbang;
#X obj 154 20 inlet;
#X obj 153 75 s \$0-midi-note;
#X obj 70 173 r \$0-midi-note;
#X text 31 627 Modified on: 28/05/2023;
#X obj 373 10 inlet;
#X obj 373 39 s \$0-trigger-envs;
#X obj 62 47 r \$0-trigger-envs;
#X obj 24 92 spigot;
#X text 32 569 v0.4;
#X connect 0 0 55 0;
#X connect 1 0 49 1;
#X connect 2 0 3 0;
#X connect 3 1 37 0;
#X connect 7 0 17 0;
#X connect 8 0 9 0;
#X connect 9 0 10 1;
#X connect 10 0 11 0;
#X connect 11 0 12 0;
#X connect 12 0 14 0;
#X connect 14 0 15 0;
#X connect 15 0 16 0;
#X connect 16 0 33 0;
#X connect 17 0 10 0;
#X connect 17 1 11 1;
#X connect 17 2 16 1;
#X connect 20 0 2 1;
#X connect 21 0 15 1;
#X connect 31 0 20 0;
#X connect 32 0 21 0;
#X connect 34 0 3 1;
#X connect 36 0 41 0;
#X connect 40 0 76 0;
#X connect 41 0 0 0;
#X connect 42 0 45 0;
#X connect 43 0 7 0;
#X connect 44 0 8 0;
#X connect 45 0 36 0;
#X connect 45 1 43 0;
#X connect 45 2 44 0;
#X connect 45 2 67 0;
#X connect 48 0 49 0;
#X connect 49 0 2 0;
#X connect 52 0 54 0;
#X connect 54 0 61 0;
#X connect 55 0 56 0;
#X connect 55 0 1 0;
#X connect 56 0 48 0;
#X connect 57 0 55 1;
#X connect 58 0 52 0;
#X connect 59 0 54 1;
#X connect 60 0 58 0;
#X connect 60 0 59 0;
#X connect 62 0 63 0;
#X connect 64 0 21 5;
#X connect 65 0 21 5;
#X connect 66 0 20 5;
#X connect 67 0 20 5;
#X connect 68 0 65 0;
#X connect 69 0 70 0;
#X connect 71 0 36 0;
#X connect 73 0 74 0;
#X connect 75 0 76 1;
#X connect 76 0 30 0;
