#N canvas 62 173 774 509 12;
#X obj 90 301 dac~;
#X text 29 417 Created by: Matthew Harris;
#X text 29 397 Created on: 20/05/2023;
#X text 307 385 Inspired by Eno's Discrete Music and;
#X text 306 402 https://teropa.info/blog/2016/07/28/javascript-systems-music.html#the-notes-and-intervals-in-music-for-airports
;
#X text 310 442 HEAVILY WIP!!!;
#X obj 40 66 clock;
#X obj 39 33 tgl 15 0 empty empty empty 17 7 0 10 -262144 -1 -1 0 1
;
#X floatatom 88 28 5 0 0 0 - - -;
#X text 135 29 BPM;
#X obj 260 42 r eigth_note_time;
#X floatatom 257 87 5 0 0 0 - - -;
#X obj 95 177 duosynth 60 200 2 100;
#X text 306 85 hold time ms;
#X obj 516 66 + 1;
#X obj 449 28 r quarter_note;
#X obj 516 95 mod 4;
#X obj 448 110 + 1;
#X text 577 25 Bang on beat TWO;
#X text 578 45 of every measure;
#X obj 448 140 sel 2;
#X obj 448 170 s trigger;
#X obj 93 138 r trigger;
#X obj 449 82 f 0;
#X text 30 437 Modified on: 21/05/2023;
#X obj 94 260 panner;
#X text 192 211 pan position;
#X text 192 232 0 fully left;
#X text 191 267 1 fully right;
#X text 192 249 50 centered;
#X obj 121 201 loadbang;
#X msg 126 234 25;
#X text 31 379 v0.3;
#X connect 7 0 6 0;
#X connect 8 0 6 1;
#X connect 10 0 11 0;
#X connect 11 0 12 1;
#X connect 12 0 25 0;
#X connect 14 0 16 0;
#X connect 15 0 23 0;
#X connect 16 0 23 1;
#X connect 17 0 20 0;
#X connect 20 0 21 0;
#X connect 22 0 12 0;
#X connect 23 0 14 0;
#X connect 23 0 17 0;
#X connect 25 0 0 0;
#X connect 25 1 0 1;
#X connect 30 0 31 0;
#X connect 31 0 25 1;
