#N canvas 0 129 1680 743 12;
#X text 25 644 Created by: Matthew Harris;
#X text 25 624 Created on: 20/05/2023;
#X text 303 612 Inspired by Eno's Discrete Music and;
#X text 302 629 https://teropa.info/blog/2016/07/28/javascript-systems-music.html#the-notes-and-intervals-in-music-for-airports
;
#X text 306 669 HEAVILY WIP!!!;
#X obj 40 66 clock;
#X obj 40 34 tgl 15 0 empty empty empty 17 7 0 10 -262144 -1 -1 0 1
;
#X floatatom 100 53 5 20 300 0 - - -;
#X text 135 29 BPM;
#X obj 46 278 duosynth 60 200 2 100;
#X obj 63 366 panner;
#X text 143 312 pan position;
#X text 143 333 0 fully left;
#X text 142 368 1 fully right;
#X text 143 350 50 centered;
#X obj 72 302 loadbang;
#X obj 368 376 panner;
#X obj 427 314 loadbang;
#X obj 401 290 duosynth 64 200 2 100;
#X obj 214 501 +~;
#X obj 281 501 +~;
#X obj 248 548 dac~;
#X msg 77 335 25;
#X msg 432 347 75;
#X obj 44 239 r left-trigger;
#X obj 399 251 r right-trigger;
#X obj 77 8 loadbang;
#X msg 70 29 60;
#X floatatom 693 125 8 0 0 0 - - -;
#X text 798 542 NOTE MEASURES:BARS:SIXTEENTHS;
#X text 797 564 are zero based for now;
#X text 798 589 A BIT CONFUSING!;
#X text 798 612 0:1:0 -> means 2nd beat of bar 1;
#X text 26 664 Modified on: 24/05/2023;
#X obj 190 239 r left-hold-time;
#X obj 156 199 r left-note;
#X text 624 236 EVENT 1;
#X obj 598 96 loop_counter 4;
#X obj 984 283 note_event;
#X msg 1069 206 64;
#X msg 1004 206 2 2 0;
#X obj 1038 138 loadbang;
#X msg 1125 205 0 3 0;
#X obj 696 303 note_event;
#X obj 750 158 loadbang;
#X msg 716 226 0 0 0;
#X msg 837 225 0 0 2;
#X text 915 167 EVENT 3;
#X obj 702 518 note_event;
#X obj 756 373 loadbang;
#X msg 722 441 2 0 0;
#X msg 843 440 0 2 0;
#X text 633 386 EVENT 2;
#X text 599 67 LHS LOOP SEQUECE;
#X msg 781 226 60;
#X msg 787 441 62;
#X obj 1037 375 r left-note;
#X floatatom 1040 417 5 0 0 0 - - -;
#X text 27 606 v0.5;
#X connect 6 0 5 0;
#X connect 7 0 5 1;
#X connect 9 0 10 0;
#X connect 10 0 19 0;
#X connect 10 1 20 0;
#X connect 15 0 22 0;
#X connect 16 0 19 1;
#X connect 16 1 20 1;
#X connect 17 0 23 0;
#X connect 18 0 16 0;
#X connect 19 0 21 0;
#X connect 20 0 21 1;
#X connect 22 0 10 1;
#X connect 23 0 16 1;
#X connect 24 0 9 0;
#X connect 25 0 18 0;
#X connect 26 0 27 0;
#X connect 27 0 5 1;
#X connect 28 0 38 0;
#X connect 28 0 43 0;
#X connect 28 0 48 0;
#X connect 34 0 9 2;
#X connect 35 0 9 1;
#X connect 37 1 28 0;
#X connect 39 0 38 2;
#X connect 40 0 38 1;
#X connect 41 0 40 0;
#X connect 41 0 39 0;
#X connect 41 0 42 0;
#X connect 42 0 38 3;
#X connect 44 0 45 0;
#X connect 44 0 54 0;
#X connect 44 0 46 0;
#X connect 45 0 43 1;
#X connect 46 0 43 3;
#X connect 49 0 50 0;
#X connect 49 0 55 0;
#X connect 49 0 51 0;
#X connect 50 0 48 1;
#X connect 51 0 48 3;
#X connect 54 0 43 2;
#X connect 55 0 48 2;
#X connect 56 0 57 0;
