#N canvas 23 79 1570 743 12;
#X text 25 644 Created by: Matthew Harris;
#X text 25 624 Created on: 20/05/2023;
#X text 303 612 Inspired by Eno's Discrete Music and;
#X text 302 629 https://teropa.info/blog/2016/07/28/javascript-systems-music.html#the-notes-and-intervals-in-music-for-airports
;
#X text 306 669 HEAVILY WIP!!!;
#X obj 40 66 clock;
#X obj 39 34 tgl 15 0 empty empty empty 17 7 0 10 -262144 -1 -1 1 1
;
#X floatatom 100 53 5 20 300 0 - - -;
#X text 135 29 BPM;
#X obj 46 278 duosynth 60 200 2 100;
#X text 225 199 hold time ms;
#X obj 63 366 panner;
#X text 143 312 pan position;
#X text 143 333 0 fully left;
#X text 142 368 1 fully right;
#X text 143 350 50 centered;
#X obj 72 302 loadbang;
#X obj 368 376 panner;
#X obj 427 314 loadbang;
#X obj 401 290 duosynth 64 200 2 100;
#X obj 214 501 +~;
#X obj 281 501 +~;
#X obj 248 548 dac~;
#X msg 77 335 25;
#X msg 432 347 75;
#X text 27 606 v0.4;
#X text 175 76 Hold time of left hand note;
#X floatatom 568 123 5 0 0 0 - - -;
#X floatatom 546 221 8 0 0 0 - - -;
#X text 562 69 Hold time of right hand note;
#X obj 548 176 tempo_to_absolute_time;
#X floatatom 628 122 5 0 0 0 - - -;
#X floatatom 692 123 5 0 0 0 - - -;
#X floatatom 166 109 5 0 0 0 - - -;
#X floatatom 144 207 8 0 0 0 - - -;
#X obj 146 162 tempo_to_absolute_time;
#X floatatom 226 108 5 0 0 0 - - -;
#X obj 682 360 tempo_to_absolute_time;
#X floatatom 795 390 5 0 0 0 - - -;
#X obj 853 427 ==;
#X text 582 342 note event;
#X obj 854 495 s left-trigger;
#X obj 44 239 r left-trigger;
#X obj 399 251 r right-trigger;
#X obj 1063 371 tempo_to_absolute_time;
#X msg 1062 336 0;
#X msg 1175 333 0;
#X floatatom 1176 401 5 0 0 0 - - -;
#X obj 1123 428 ==;
#X obj 1124 495 s right-trigger;
#X msg 1117 334 3;
#X obj 1124 457 sel 1;
#X obj 1194 475 bng 15 250 50 0 empty empty empty 17 7 0 10 -262144
-1 -1;
#X obj 853 455 sel 1;
#X obj 925 477 bng 15 250 50 0 empty empty empty 17 7 0 10 -262144
-1 -1;
#X obj 1115 286 loadbang;
#X obj 691 290 loadbang;
#X msg 325 95 2;
#X obj 331 46 loadbang;
#X floatatom 331 127 5 0 0 0 - - -;
#X obj 77 8 loadbang;
#X msg 70 29 60;
#X obj 745 107 loadbang, f 9;
#X msg 748 162 5;
#X msg 681 325 1;
#X msg 794 322 0;
#X msg 736 323 0;
#X floatatom 970 210 8 0 0 0 - - -;
#X obj 884 134 loop_counter 2;
#X text 1296 271 NOTE MEASURES:BARS:SIXTEENTHS;
#X text 1295 293 are zero based for now;
#X text 1296 318 A BIT CONFUSING!;
#X text 1296 341 0:1:0 -> means 2nd beat of bar 1;
#X text 26 664 Modified on: 24/05/2023;
#X connect 6 0 5 0;
#X connect 7 0 5 1;
#X connect 9 0 11 0;
#X connect 11 0 20 0;
#X connect 11 1 21 0;
#X connect 16 0 23 0;
#X connect 17 0 20 1;
#X connect 17 1 21 1;
#X connect 18 0 24 0;
#X connect 19 0 17 0;
#X connect 20 0 22 0;
#X connect 21 0 22 1;
#X connect 23 0 11 1;
#X connect 24 0 17 1;
#X connect 27 0 30 0;
#X connect 28 0 19 1;
#X connect 30 0 28 0;
#X connect 31 0 30 1;
#X connect 32 0 30 2;
#X connect 33 0 35 0;
#X connect 34 0 9 1;
#X connect 35 0 34 0;
#X connect 36 0 35 1;
#X connect 37 0 38 0;
#X connect 38 0 39 1;
#X connect 39 0 53 0;
#X connect 42 0 9 0;
#X connect 43 0 19 0;
#X connect 44 0 47 0;
#X connect 45 0 44 0;
#X connect 46 0 44 2;
#X connect 47 0 48 1;
#X connect 48 0 51 0;
#X connect 50 0 44 1;
#X connect 51 0 49 0;
#X connect 51 0 52 0;
#X connect 53 0 41 0;
#X connect 53 0 54 0;
#X connect 55 0 45 0;
#X connect 55 0 50 0;
#X connect 55 0 46 0;
#X connect 56 0 64 0;
#X connect 56 0 66 0;
#X connect 56 0 65 0;
#X connect 57 0 35 2;
#X connect 58 0 57 0;
#X connect 59 0 35 2;
#X connect 60 0 61 0;
#X connect 61 0 5 1;
#X connect 62 0 63 0;
#X connect 63 0 30 2;
#X connect 64 0 37 0;
#X connect 65 0 37 2;
#X connect 66 0 37 1;
#X connect 67 0 39 0;
#X connect 67 0 48 0;
#X connect 68 1 67 0;
