#N canvas 94 87 1585 737 12;
#X text 25 644 Created by: Matthew Harris;
#X text 25 624 Created on: 20/05/2023;
#X text 303 612 Inspired by Eno's Discrete Music and;
#X text 302 629 https://teropa.info/blog/2016/07/28/javascript-systems-music.html#the-notes-and-intervals-in-music-for-airports
;
#X text 306 669 HEAVILY WIP!!!;
#X obj 40 66 clock;
#X obj 39 34 tgl 15 0 empty empty empty 17 7 0 10 -262144 -1 -1 1 1
;
#X floatatom 100 53 5 20 300 0 - - -;
#X text 135 29 BPM;
#X obj 46 278 duosynth 60 200 2 100;
#X text 225 199 hold time ms;
#X obj 63 366 panner;
#X text 143 312 pan position;
#X text 143 333 0 fully left;
#X text 142 368 1 fully right;
#X text 143 350 50 centered;
#X obj 72 302 loadbang;
#X obj 368 376 panner;
#X obj 427 314 loadbang;
#X obj 401 290 duosynth 64 200 2 100;
#X obj 214 501 +~;
#X obj 281 501 +~;
#X obj 248 548 dac~;
#X msg 77 335 25;
#X msg 432 347 75;
#X text 27 606 v0.4;
#X text 26 664 Modified on: 23/05/2023;
#X text 175 76 Hold time of left hand note;
#X floatatom 568 123 5 0 0 0 - - -;
#X floatatom 546 221 8 0 0 0 - - -;
#X text 562 69 Hold time of right hand note;
#X obj 1255 456 hradio 15 1 0 16 empty empty empty 0 -8 0 10 -262144
-1 -1 3;
#X obj 1321 317 + 1;
#X obj 1253 259 r sixteenth_note;
#X obj 1321 346 mod 16;
#X text 1157 362 zero indexed;
#X obj 1255 368 f -1;
#X obj 548 176 tempo_to_absolute_time;
#X floatatom 628 122 5 0 0 0 - - -;
#X floatatom 692 123 5 0 0 0 - - -;
#X floatatom 166 109 5 0 0 0 - - -;
#X floatatom 144 207 8 0 0 0 - - -;
#X obj 146 162 tempo_to_absolute_time;
#X floatatom 226 108 5 0 0 0 - - -;
#X obj 1223 309 r ON;
#X msg 1230 331 -1;
#X text 1380 260 16th counter;
#X floatatom 1322 379 5 0 0 0 - - -;
#X obj 953 454 hradio 15 1 0 4 empty empty empty 0 -8 0 10 -262144
-1 -1 0;
#X obj 1019 315 + 1;
#X text 855 360 zero indexed;
#X obj 953 366 f -1;
#X obj 921 307 r ON;
#X msg 928 329 -1;
#X floatatom 1020 377 5 0 0 0 - - -;
#X obj 951 257 r quarter_note;
#X text 1078 258 quarter counter;
#X obj 1019 344 mod 4;
#X obj 753 288 r whole_note;
#X obj 814 365 + 1;
#X floatatom 791 443 5 0 0 0 - - -;
#X obj 700 325 r ON;
#X msg 707 347 -2;
#X obj 752 408 f -2;
#X text 613 346 -2 because it;
#X text 598 371 gets 2 bangs on reset;
#X floatatom 838 390 5 0 0 0 - - -;
#X obj 799 414 mod 8;
#X text 858 407 loop length;
#X text 959 206 rough scheduler;
#X obj 859 501 tempo_to_absolute_time;
#X obj 1022 413 + 1;
#X text 1057 413 TODO 0 needs to mean no 4ths;
#X obj 673 526 tempo_to_absolute_time;
#X msg 672 491 0;
#X msg 785 488 0;
#X floatatom 786 556 5 0 0 0 - - -;
#X obj 844 593 ==;
#X text 573 508 note event;
#X obj 845 661 s left-trigger;
#X obj 44 239 r left-trigger;
#X obj 399 251 r right-trigger;
#X obj 1054 537 tempo_to_absolute_time;
#X msg 1053 502 0;
#X msg 1166 499 0;
#X floatatom 1167 567 5 0 0 0 - - -;
#X obj 1114 594 ==;
#X obj 1115 661 s right-trigger;
#X msg 1108 500 3;
#X obj 1115 623 sel 1;
#X obj 1185 641 bng 15 250 50 0 empty empty empty 17 7 0 10 -262144
-1 -1;
#X obj 844 621 sel 1;
#X obj 916 643 bng 15 250 50 0 empty empty empty 17 7 0 10 -262144
-1 -1;
#X obj 1106 452 loadbang;
#X obj 682 456 loadbang;
#X msg 727 489 5;
#X msg 325 95 2;
#X obj 331 46 loadbang;
#X floatatom 331 127 5 0 0 0 - - -;
#X obj 77 8 loadbang;
#X msg 70 29 60;
#X obj 745 107 loadbang, f 9;
#X msg 748 162 5;
#X connect 6 0 5 0;
#X connect 7 0 5 1;
#X connect 9 0 11 0;
#X connect 11 0 20 0;
#X connect 11 1 21 0;
#X connect 16 0 23 0;
#X connect 17 0 20 1;
#X connect 17 1 21 1;
#X connect 18 0 24 0;
#X connect 19 0 17 0;
#X connect 20 0 22 0;
#X connect 21 0 22 1;
#X connect 23 0 11 1;
#X connect 24 0 17 1;
#X connect 28 0 37 0;
#X connect 29 0 19 1;
#X connect 32 0 34 0;
#X connect 33 0 36 0;
#X connect 34 0 36 1;
#X connect 34 0 47 0;
#X connect 36 0 32 0;
#X connect 36 0 31 0;
#X connect 37 0 29 0;
#X connect 38 0 37 1;
#X connect 39 0 37 2;
#X connect 40 0 42 0;
#X connect 41 0 9 1;
#X connect 42 0 41 0;
#X connect 43 0 42 1;
#X connect 44 0 45 0;
#X connect 45 0 36 0;
#X connect 47 0 70 2;
#X connect 49 0 57 0;
#X connect 51 0 49 0;
#X connect 51 0 48 0;
#X connect 52 0 53 0;
#X connect 53 0 51 0;
#X connect 54 0 71 0;
#X connect 55 0 51 0;
#X connect 57 0 51 1;
#X connect 57 0 54 0;
#X connect 58 0 63 0;
#X connect 59 0 67 0;
#X connect 60 0 70 0;
#X connect 61 0 62 0;
#X connect 62 0 63 0;
#X connect 63 0 59 0;
#X connect 66 0 67 1;
#X connect 67 0 60 0;
#X connect 67 0 63 1;
#X connect 70 0 77 0;
#X connect 70 0 86 0;
#X connect 71 0 70 1;
#X connect 73 0 76 0;
#X connect 74 0 73 0;
#X connect 75 0 73 2;
#X connect 76 0 77 1;
#X connect 77 0 91 0;
#X connect 80 0 9 0;
#X connect 81 0 19 0;
#X connect 82 0 85 0;
#X connect 83 0 82 0;
#X connect 84 0 82 2;
#X connect 85 0 86 1;
#X connect 86 0 89 0;
#X connect 88 0 82 1;
#X connect 89 0 87 0;
#X connect 89 0 90 0;
#X connect 91 0 79 0;
#X connect 91 0 92 0;
#X connect 93 0 83 0;
#X connect 93 0 88 0;
#X connect 93 0 84 0;
#X connect 94 0 74 0;
#X connect 94 0 95 0;
#X connect 94 0 75 0;
#X connect 95 0 73 1;
#X connect 96 0 42 2;
#X connect 97 0 96 0;
#X connect 98 0 42 2;
#X connect 99 0 100 0;
#X connect 100 0 5 1;
#X connect 101 0 102 0;
#X connect 102 0 37 2;
