#N canvas 376 106 546 332 12;
#X obj 14 17 cnv 15 520 300 empty empty empty 20 12 0 14 -233017 -66577
0;
#X text 356 68 Created by: Matthew Harris;
#X text 356 48 Created on: 20/05/2023;
#X text 22 255 Inspired by Eno's Discrete Music and;
#X text 21 272 https://teropa.info/blog/2016/07/28/javascript-systems-music.html#the-notes-and-intervals-in-music-for-airports
;
#X text 357 88 Modified on: 29/05/2023;
#X text 358 30 v0.7;
#X obj 23 30 cnv 20 320 220 empty empty DISCRETE_MUSIC 23 15 0 20 -232576
-66577 0;
#X obj 175 93 hsl 128 15 20 300 0 1 empty init-bpm TEMPO_(BPM) -2 -10
0 20 -262144 -1 -1 4536 1;
#X floatatom 172 114 5 0 0 0 - - set-bpm;
#X obj 46 95 tgl 80 0 toggle-run empty RUN 0 -10 0 20 -204786 -258113
-1 1 1;
#X obj 173 159 hsl 128 15 0 100 0 0 set-vol init-vol VOLUME -2 -10
0 20 -262144 -1 -1 10160 1;
#N canvas 653 178 918 715 subpatch 0;
#X obj 48 105 clock;
#X obj 48 73 tgl 15 0 empty empty empty 17 7 0 10 -262144 -1 -1 1 1
;
#X floatatom 128 87 5 20 300 0 - set-bpm -;
#X text 143 68 BPM;
#X obj 48 241 duosynth 60 200 2 100;
#X obj 65 329 panner;
#X text 145 275 pan position;
#X text 145 296 0 fully left;
#X text 144 331 1 fully right;
#X text 145 313 50 centered;
#X obj 74 265 loadbang;
#X obj 370 339 panner;
#X obj 429 277 loadbang;
#X obj 403 253 duosynth 64 200 2 100;
#X obj 220 401 +~;
#X obj 281 401 +~;
#X msg 79 298 25;
#X msg 434 310 75;
#X obj 78 37 loadbang;
#X floatatom 380 78 8 0 0 0 - - -;
#X text 437 594 NOTE MEASURES:BARS:SIXTEENTHS;
#X text 436 616 are zero based for now;
#X text 437 641 A BIT CONFUSING!;
#X text 437 664 0:1:0 -> means 2nd beat of bar 1;
#X text 278 35 LHS LOOP SEQUECE;
#X obj 277 54 loop_counter 34;
#X obj 48 147 r left-note-event;
#X obj 50 213 bng 15 250 50 0 empty empty empty 17 7 0 10 -262144 -1
-1;
#X obj 380 100 s left-loop-sixteenth;
#X obj 54 174 unpack f f f;
#N canvas 436 77 1244 623 left-channel-sequence 0;
#X text 100 100 EVENT 1;
#X obj 702 219 note_event;
#X msg 787 142 64;
#X obj 756 74 loadbang;
#X obj 152 234 note_event;
#X obj 206 89 loadbang;
#X msg 110 156 0 0 0;
#X text 633 103 EVENT 3;
#X obj 430 227 note_event;
#X obj 484 82 loadbang;
#X msg 527 148 0 2 0;
#X text 361 95 EVENT 2;
#X msg 231 155 0 1 2;
#X msg 838 143 0 0 2;
#X obj 961 221 note_event;
#X obj 1015 76 loadbang;
#X msg 1101 143 0 0 2;
#X msg 1046 144 67;
#X obj 134 454 note_event;
#X obj 188 309 loadbang;
#X msg 274 376 2 0 0;
#X obj 423 460 note_event;
#X obj 477 315 loadbang;
#X msg 563 382 2 0 0;
#X msg 219 377 76;
#X msg 508 383 79;
#X obj 680 470 note_event;
#X obj 734 325 loadbang;
#X msg 814 396 2 0 0;
#X msg 768 394 81;
#X obj 917 472 note_event;
#X obj 971 327 loadbang;
#X msg 1058 394 2 0 0;
#X msg 937 395 19 4 2;
#X msg 1009 395 79;
#X msg 406 149 0 1 0;
#X obj 160 263 s left-note-event;
#X obj 700 261 s left-note-event;
#X obj 130 491 s left-note-event;
#X obj 672 510 s left-note-event;
#X obj 425 269 s left-note-event;
#X obj 994 270 s left-note-event;
#X obj 427 510 s left-note-event;
#X obj 917 523 s left-note-event;
#X obj 93 199 r left-loop-sixteenth;
#X obj 361 193 r left-loop-sixteenth;
#X msg 297 154 1;
#X msg 595 149 0;
#X obj 666 188 r left-loop-sixteenth;
#X msg 903 142 1;
#X obj 934 188 r left-loop-sixteenth;
#X text 930 101 EVENT 4;
#X text 83 344 EVENT 5;
#X obj 94 419 r left-loop-sixteenth;
#X msg 339 378 1;
#X text 390 346 EVENT 6;
#X msg 1175 142 1;
#X msg 623 384 0;
#X msg 874 394 0;
#X msg 1115 395 0;
#X obj 843 440 r left-loop-sixteenth;
#X obj 360 427 r left-loop-sixteenth;
#X obj 624 436 r left-loop-sixteenth;
#X text 665 339 EVENT 7;
#X text 899 337 EVENT 6;
#X msg 175 156 72;
#X msg 471 149 74;
#X msg 722 142 5 0 0;
#X msg 981 144 10 1 0;
#X msg 154 377 18 0 0;
#X msg 443 383 18 0 1;
#X msg 700 393 18 2 0;
#X connect 1 0 37 0;
#X connect 2 0 1 2;
#X connect 3 0 67 0;
#X connect 3 0 2 0;
#X connect 3 0 13 0;
#X connect 3 0 49 0;
#X connect 4 0 36 0;
#X connect 5 0 6 0;
#X connect 5 0 65 0;
#X connect 5 0 12 0;
#X connect 5 0 46 0;
#X connect 6 0 4 1;
#X connect 8 0 40 0;
#X connect 9 0 35 0;
#X connect 9 0 66 0;
#X connect 9 0 10 0;
#X connect 9 0 47 0;
#X connect 10 0 8 3;
#X connect 12 0 4 3;
#X connect 13 0 1 3;
#X connect 14 0 41 0;
#X connect 15 0 17 0;
#X connect 15 0 16 0;
#X connect 15 0 68 0;
#X connect 15 0 56 0;
#X connect 16 0 14 3;
#X connect 17 0 14 2;
#X connect 18 0 38 0;
#X connect 19 0 69 0;
#X connect 19 0 24 0;
#X connect 19 0 20 0;
#X connect 19 0 54 0;
#X connect 20 0 18 3;
#X connect 21 0 42 0;
#X connect 22 0 70 0;
#X connect 22 0 25 0;
#X connect 22 0 23 0;
#X connect 22 0 57 0;
#X connect 23 0 21 3;
#X connect 24 0 18 2;
#X connect 25 0 21 2;
#X connect 26 0 39 0;
#X connect 27 0 71 0;
#X connect 27 0 29 0;
#X connect 27 0 28 0;
#X connect 27 0 58 0;
#X connect 28 0 26 3;
#X connect 29 0 26 2;
#X connect 30 0 43 0;
#X connect 31 0 33 0;
#X connect 31 0 34 0;
#X connect 31 0 32 0;
#X connect 31 0 59 0;
#X connect 32 0 30 3;
#X connect 33 0 30 1;
#X connect 34 0 30 2;
#X connect 35 0 8 1;
#X connect 44 0 4 0;
#X connect 45 0 8 0;
#X connect 46 0 4 4;
#X connect 47 0 8 4;
#X connect 48 0 1 0;
#X connect 49 0 1 4;
#X connect 50 0 14 0;
#X connect 53 0 18 0;
#X connect 54 0 18 4;
#X connect 56 0 14 4;
#X connect 58 0 26 4;
#X connect 59 0 30 4;
#X connect 60 0 30 0;
#X connect 61 0 21 0;
#X connect 62 0 26 0;
#X connect 65 0 4 2;
#X connect 66 0 8 2;
#X connect 67 0 1 1;
#X connect 68 0 14 1;
#X connect 69 0 18 1;
#X connect 70 0 21 1;
#X connect 71 0 26 1;
#X restore 380 130 pd left-channel-sequence;
#X obj 606 54 loop_counter 37;
#X obj 708 85 s right-loop-sixteenth;
#N canvas 142 -918 1244 623 right-channel-sequence 0;
#X text 100 100 EVENT 1;
#X obj 702 219 note_event;
#X obj 756 74 loadbang;
#X obj 152 234 note_event;
#X obj 206 89 loadbang;
#X text 633 103 EVENT 3;
#X obj 430 227 note_event;
#X obj 484 82 loadbang;
#X msg 527 148 0 2 0;
#X text 361 95 EVENT 2;
#X obj 961 221 note_event;
#X obj 1015 76 loadbang;
#X msg 1101 143 0 0 2;
#X obj 134 454 note_event;
#X obj 188 309 loadbang;
#X msg 297 154 1;
#X msg 595 149 0;
#X msg 903 142 1;
#X text 930 101 EVENT 4;
#X text 83 344 EVENT 5;
#X msg 339 378 1;
#X obj 93 199 r right-loop-sixteenth;
#X obj 361 193 r right-loop-sixteenth;
#X obj 160 263 s right-note-event;
#X obj 425 269 s right-note-event;
#X obj 666 188 r right-loop-sixteenth;
#X obj 700 261 s right-note-event;
#X obj 934 188 r right-loop-sixteenth;
#X obj 994 270 s right-note-event;
#X obj 94 419 r right-loop-sixteenth;
#X obj 130 491 s right-note-event;
#X msg 175 156 62;
#X msg 110 156 4 0 0;
#X msg 231 155 1 2 0;
#X msg 471 149 64;
#X msg 406 149 5 0 0;
#X msg 787 142 59;
#X msg 722 142 10 1 1;
#X msg 838 143 1 0 0;
#X msg 1046 144 55;
#X msg 1175 142 0;
#X msg 981 144 11 0 1;
#X msg 219 377 67;
#X msg 154 377 22 1 0;
#X msg 274 376 0 2 0;
#X connect 1 0 26 0;
#X connect 2 0 37 0;
#X connect 2 0 36 0;
#X connect 2 0 38 0;
#X connect 2 0 17 0;
#X connect 3 0 23 0;
#X connect 4 0 32 0;
#X connect 4 0 31 0;
#X connect 4 0 33 0;
#X connect 4 0 15 0;
#X connect 6 0 24 0;
#X connect 7 0 35 0;
#X connect 7 0 34 0;
#X connect 7 0 8 0;
#X connect 7 0 16 0;
#X connect 8 0 6 3;
#X connect 10 0 28 0;
#X connect 11 0 39 0;
#X connect 11 0 12 0;
#X connect 11 0 41 0;
#X connect 11 0 40 0;
#X connect 12 0 10 3;
#X connect 13 0 30 0;
#X connect 14 0 43 0;
#X connect 14 0 42 0;
#X connect 14 0 44 0;
#X connect 14 0 20 0;
#X connect 15 0 3 4;
#X connect 16 0 6 4;
#X connect 17 0 1 4;
#X connect 20 0 13 4;
#X connect 21 0 3 0;
#X connect 22 0 6 0;
#X connect 25 0 1 0;
#X connect 27 0 10 0;
#X connect 29 0 13 0;
#X connect 31 0 3 2;
#X connect 32 0 3 1;
#X connect 33 0 3 3;
#X connect 34 0 6 2;
#X connect 35 0 6 1;
#X connect 36 0 1 2;
#X connect 37 0 1 1;
#X connect 38 0 1 3;
#X connect 39 0 10 2;
#X connect 40 0 10 4;
#X connect 41 0 10 1;
#X connect 42 0 13 2;
#X connect 43 0 13 1;
#X connect 44 0 13 3;
#X restore 705 126 pd right-channel-sequence;
#X obj 399 169 r right-note-event;
#X obj 404 232 bng 15 250 50 0 empty empty empty 17 7 0 10 -262144
-1 -1;
#X obj 428 193 unpack f f f;
#X obj 331 407 r sixteenth_note_time;
#X floatatom 331 430 5 0 0 0 - - -;
#X text 456 469 echo delay;
#X obj 252 469 mono_delay 1000 300 0.2 0.5;
#X obj 433 515 mono_delay 10000 6000 0.75 0.5;
#X obj 251 544 +~;
#X text 656 514 frippertronics delay;
#X text 458 485 16 note delay \, small feedback;
#X text 658 531 6000 ms delay \, large feedback;
#X obj 249 597 level_control~;
#X obj 28 13 r toggle-run;
#X msg 78 68 120;
#X obj 98 121 s init-bpm;
#X obj 349 545 loadbang;
#X msg 349 568 80;
#X obj 355 599 s init-vol;
#X floatatom 416 569 5 0 0 0 - set-vol -;
#X connect 1 0 0 0;
#X connect 2 0 0 1;
#X connect 4 0 5 0;
#X connect 5 0 14 0;
#X connect 5 1 15 0;
#X connect 10 0 16 0;
#X connect 11 0 14 1;
#X connect 11 1 15 1;
#X connect 12 0 17 0;
#X connect 13 0 11 0;
#X connect 14 0 40 0;
#X connect 15 0 40 0;
#X connect 16 0 5 1;
#X connect 17 0 11 1;
#X connect 18 0 48 0;
#X connect 19 0 28 0;
#X connect 25 1 19 0;
#X connect 26 0 27 0;
#X connect 26 0 29 0;
#X connect 27 0 4 0;
#X connect 29 0 4 1;
#X connect 29 1 4 2;
#X connect 29 2 4 3;
#X connect 31 1 32 0;
#X connect 34 0 36 0;
#X connect 34 0 35 0;
#X connect 35 0 13 0;
#X connect 36 0 13 1;
#X connect 36 1 13 2;
#X connect 36 2 13 3;
#X connect 37 0 38 0;
#X connect 38 0 40 1;
#X connect 40 0 41 0;
#X connect 40 0 42 0;
#X connect 41 0 42 1;
#X connect 42 0 46 0;
#X connect 42 0 46 1;
#X connect 47 0 1 0;
#X connect 48 0 0 1;
#X connect 48 0 49 0;
#X connect 50 0 51 0;
#X connect 51 0 46 2;
#X connect 51 0 52 0;
#X connect 53 0 46 2;
#X restore 222 187 pd subpatch;
#X connect 8 0 9 0;
#X coords 0 332 1 331 85 60 0;
