#N canvas 94 87 1345 737 12;
#X text 25 644 Created by: Matthew Harris;
#X text 25 624 Created on: 20/05/2023;
#X text 303 612 Inspired by Eno's Discrete Music and;
#X text 302 629 https://teropa.info/blog/2016/07/28/javascript-systems-music.html#the-notes-and-intervals-in-music-for-airports
;
#X text 306 669 HEAVILY WIP!!!;
#X obj 40 66 clock;
#X obj 39 34 tgl 15 0 empty empty empty 17 7 0 10 -262144 -1 -1 1 1
;
#X floatatom 88 28 5 0 0 0 - - -;
#X text 135 29 BPM;
#X obj 46 278 duosynth 60 200 2 100;
#X text 225 199 hold time ms;
#X obj 855 350 + 1;
#X obj 788 312 r quarter_note;
#X obj 787 394 + 1;
#X text 843 411 Bang on beat TWO;
#X text 844 431 of every measure;
#X obj 787 454 s trigger;
#X obj 44 239 r trigger;
#X obj 788 366 f 0;
#X obj 63 366 panner;
#X text 143 312 pan position;
#X text 143 333 0 fully left;
#X text 142 368 1 fully right;
#X text 143 350 50 centered;
#X obj 72 302 loadbang;
#X obj 399 251 r trigger;
#X obj 368 376 panner;
#X obj 427 314 loadbang;
#X obj 401 290 duosynth 64 200 2 100;
#X obj 214 501 +~;
#X obj 281 501 +~;
#X obj 248 548 dac~;
#X msg 77 335 25;
#X msg 432 347 75;
#X text 27 606 v0.4;
#X text 26 664 Modified on: 23/05/2023;
#X text 175 76 Hold time of left hand note;
#X floatatom 568 123 5 0 0 0 - - -;
#X floatatom 546 221 8 0 0 0 - - -;
#X text 562 69 Hold time of right hand note;
#X obj 1070 488 hradio 15 1 0 16 empty empty empty 0 -8 0 10 -262144
-1 -1 7;
#X obj 1136 349 + 1;
#X text 1197 308 Bang on beat TWO;
#X text 1198 328 of every measure;
#X obj 1071 274 r sixteenth_note;
#X obj 1136 378 mod 16;
#X text 1116 398 zero indexed;
#X obj 1069 394 f -1;
#X obj 548 176 tempo_to_absolute_time;
#X floatatom 628 122 5 0 0 0 - - -;
#X floatatom 692 123 5 0 0 0 - - -;
#X floatatom 166 109 5 0 0 0 - - -;
#X floatatom 144 207 8 0 0 0 - - -;
#X obj 146 162 tempo_to_absolute_time;
#X floatatom 226 108 5 0 0 0 - - -;
#X floatatom 290 109 5 0 0 0 - - -;
#X obj 1038 341 r ON;
#X msg 1045 363 -1;
#X obj 787 424 sel 1;
#X obj 713 315 r ON;
#X floatatom 671 456 5 0 0 0 - - -;
#X msg 720 337 -1;
#X text 646 314 reset;
#X obj 855 379 mod 16;
#X connect 6 0 5 0;
#X connect 7 0 5 1;
#X connect 9 0 19 0;
#X connect 11 0 63 0;
#X connect 12 0 18 0;
#X connect 13 0 58 0;
#X connect 13 0 60 0;
#X connect 17 0 9 0;
#X connect 18 0 11 0;
#X connect 18 0 13 0;
#X connect 19 0 29 0;
#X connect 19 1 30 0;
#X connect 24 0 32 0;
#X connect 25 0 28 0;
#X connect 26 0 29 1;
#X connect 26 1 30 1;
#X connect 27 0 33 0;
#X connect 28 0 26 0;
#X connect 29 0 31 0;
#X connect 30 0 31 1;
#X connect 32 0 19 1;
#X connect 33 0 26 1;
#X connect 37 0 48 0;
#X connect 38 0 28 1;
#X connect 41 0 45 0;
#X connect 44 0 47 0;
#X connect 45 0 47 1;
#X connect 47 0 41 0;
#X connect 47 0 40 0;
#X connect 48 0 38 0;
#X connect 49 0 48 1;
#X connect 50 0 48 2;
#X connect 51 0 53 0;
#X connect 52 0 9 1;
#X connect 53 0 52 0;
#X connect 54 0 53 1;
#X connect 55 0 53 2;
#X connect 56 0 57 0;
#X connect 57 0 47 0;
#X connect 58 0 16 0;
#X connect 59 0 61 0;
#X connect 61 0 18 0;
#X connect 63 0 18 1;
