#N canvas 847 217 774 509 12;
#X obj 43 161 dac~;
#X obj 42 25 bng 15 250 50 0 empty empty empty 17 7 0 10 -262144 -1
-1;
#X obj 48 82 duosynth 60 200 2;
#X text 29 417 Created by: Matthew Harris;
#X text 31 379 v0.1;
#X text 29 397 Created on: 20/05/2023;
#X text 30 437 Modified on: -;
#X text 307 385 Inspired by Eno's Discrete Music and;
#X text 306 402 https://teropa.info/blog/2016/07/28/javascript-systems-music.html#the-notes-and-intervals-in-music-for-airports
;
#X text 310 442 HEAVILY WIP!!!;
#X connect 1 0 2 0;
#X connect 2 0 0 0;
#X connect 2 0 0 1;
