#N canvas -94 -987 1777 959 12;
#X text 25 644 Created by: Matthew Harris;
#X text 25 624 Created on: 20/05/2023;
#X text 303 612 Inspired by Eno's Discrete Music and;
#X text 302 629 https://teropa.info/blog/2016/07/28/javascript-systems-music.html#the-notes-and-intervals-in-music-for-airports
;
#X text 306 669 HEAVILY WIP!!!;
#X obj 40 66 clock;
#X obj 40 34 tgl 15 0 empty empty empty 17 7 0 10 -262144 -1 -1 0 1
;
#X floatatom 100 53 5 20 300 0 - - -;
#X text 135 29 BPM;
#X obj 46 278 duosynth 60 200 2 100;
#X obj 63 366 panner;
#X text 143 312 pan position;
#X text 143 333 0 fully left;
#X text 142 368 1 fully right;
#X text 143 350 50 centered;
#X obj 72 302 loadbang;
#X obj 368 376 panner;
#X obj 427 314 loadbang;
#X obj 401 290 duosynth 64 200 2 100;
#X obj 214 501 +~;
#X obj 281 501 +~;
#X obj 248 548 dac~;
#X msg 77 335 25;
#X msg 432 347 75;
#X obj 399 251 r right-trigger;
#X obj 77 8 loadbang;
#X msg 70 29 60;
#X floatatom 701 110 8 0 0 0 - - -;
#X text 307 706 NOTE MEASURES:BARS:SIXTEENTHS;
#X text 306 728 are zero based for now;
#X text 307 753 A BIT CONFUSING!;
#X text 307 776 0:1:0 -> means 2nd beat of bar 1;
#X text 26 664 Modified on: 24/05/2023;
#X text 644 169 EVENT 1;
#X obj 1246 288 note_event;
#X msg 1331 211 64;
#X obj 1300 143 loadbang;
#X obj 696 303 note_event;
#X obj 750 158 loadbang;
#X msg 654 225 0 0 0;
#X text 1177 172 EVENT 3;
#X obj 974 296 note_event;
#X obj 1028 151 loadbang;
#X msg 1071 217 0 2 0;
#X text 905 164 EVENT 2;
#X text 599 67 LHS LOOP SEQUECE;
#X msg 719 225 60;
#X msg 1015 218 62;
#X text 27 606 v0.5;
#X msg 775 224 0 1 2;
#X msg 1382 212 0 0 2;
#X msg 1266 211 6 0 0;
#X obj 598 86 loop_counter 34;
#X obj 1505 290 note_event;
#X obj 1559 145 loadbang;
#X msg 1645 212 0 0 2;
#X msg 1525 213 11 2 0;
#X msg 1590 213 67;
#X obj 678 523 note_event;
#X obj 732 378 loadbang;
#X msg 698 446 19 0 0;
#X msg 818 445 2 0 0;
#X obj 967 529 note_event;
#X obj 1021 384 loadbang;
#X msg 1107 451 2 0 0;
#X msg 763 446 76;
#X msg 987 452 19 1 2;
#X msg 1052 452 79;
#X obj 1224 539 note_event;
#X obj 1278 394 loadbang;
#X msg 1358 465 2 0 0;
#X msg 1312 463 81;
#X msg 1244 462 19 3 0;
#X obj 1461 541 note_event;
#X obj 1515 396 loadbang;
#X msg 1602 463 2 0 0;
#X msg 1481 464 19 4 2;
#X msg 1553 464 79;
#X msg 950 218 0 1 0;
#X obj 704 332 s left-note-event;
#X obj 46 184 r left-note-event;
#X obj 1244 330 s left-note-event;
#X obj 674 560 s left-note-event;
#X obj 1216 579 s left-note-event;
#X obj 969 338 s left-note-event;
#X obj 1538 339 s left-note-event;
#X obj 971 579 s left-note-event;
#X obj 1461 592 s left-note-event;
#X obj 48 250 bng 15 250 50 0 empty empty empty 17 7 0 10 -262144 -1
-1;
#X obj 701 132 s left-loop-sixteenth;
#X obj 637 268 r left-loop-sixteenth;
#X obj 905 262 r left-loop-sixteenth;
#X msg 841 223 1;
#X msg 1139 218 0;
#X obj 1210 257 r left-loop-sixteenth;
#X msg 1447 211 1;
#X obj 1478 257 r left-loop-sixteenth;
#X text 1474 170 EVENT 4;
#X text 627 413 EVENT 5;
#X obj 638 488 r left-loop-sixteenth;
#X msg 883 447 1;
#X text 934 415 EVENT 6;
#X msg 1719 211 1;
#X msg 1167 453 0;
#X msg 1418 463 0;
#X msg 1659 464 0;
#X obj 1387 509 r left-loop-sixteenth;
#X obj 904 496 r left-loop-sixteenth;
#X obj 1168 505 r left-loop-sixteenth;
#X obj 52 211 unpack f f f;
#X text 1209 408 EVENT 7;
#X text 1443 406 EVENT 6;
#X connect 6 0 5 0;
#X connect 7 0 5 1;
#X connect 9 0 10 0;
#X connect 10 0 19 0;
#X connect 10 1 20 0;
#X connect 15 0 22 0;
#X connect 16 0 19 1;
#X connect 16 1 20 1;
#X connect 17 0 23 0;
#X connect 18 0 16 0;
#X connect 19 0 21 0;
#X connect 20 0 21 1;
#X connect 22 0 10 1;
#X connect 23 0 16 1;
#X connect 24 0 18 0;
#X connect 25 0 26 0;
#X connect 26 0 5 1;
#X connect 27 0 89 0;
#X connect 34 0 81 0;
#X connect 35 0 34 2;
#X connect 36 0 51 0;
#X connect 36 0 35 0;
#X connect 36 0 50 0;
#X connect 36 0 95 0;
#X connect 37 0 79 0;
#X connect 38 0 39 0;
#X connect 38 0 46 0;
#X connect 38 0 49 0;
#X connect 38 0 92 0;
#X connect 39 0 37 1;
#X connect 41 0 84 0;
#X connect 42 0 78 0;
#X connect 42 0 47 0;
#X connect 42 0 43 0;
#X connect 42 0 93 0;
#X connect 43 0 41 3;
#X connect 46 0 37 2;
#X connect 47 0 41 2;
#X connect 49 0 37 3;
#X connect 50 0 34 3;
#X connect 51 0 34 1;
#X connect 52 1 27 0;
#X connect 53 0 85 0;
#X connect 54 0 57 0;
#X connect 54 0 55 0;
#X connect 54 0 56 0;
#X connect 54 0 102 0;
#X connect 55 0 53 3;
#X connect 56 0 53 1;
#X connect 57 0 53 2;
#X connect 58 0 82 0;
#X connect 59 0 60 0;
#X connect 59 0 65 0;
#X connect 59 0 61 0;
#X connect 59 0 100 0;
#X connect 60 0 58 1;
#X connect 61 0 58 3;
#X connect 62 0 86 0;
#X connect 63 0 66 0;
#X connect 63 0 67 0;
#X connect 63 0 64 0;
#X connect 63 0 103 0;
#X connect 64 0 62 3;
#X connect 65 0 58 2;
#X connect 66 0 62 1;
#X connect 67 0 62 2;
#X connect 68 0 83 0;
#X connect 69 0 72 0;
#X connect 69 0 71 0;
#X connect 69 0 70 0;
#X connect 69 0 104 0;
#X connect 70 0 68 3;
#X connect 71 0 68 2;
#X connect 72 0 68 1;
#X connect 73 0 87 0;
#X connect 74 0 76 0;
#X connect 74 0 77 0;
#X connect 74 0 75 0;
#X connect 74 0 105 0;
#X connect 75 0 73 3;
#X connect 76 0 73 1;
#X connect 77 0 73 2;
#X connect 78 0 41 1;
#X connect 80 0 88 0;
#X connect 80 0 109 0;
#X connect 88 0 9 0;
#X connect 90 0 37 0;
#X connect 91 0 41 0;
#X connect 92 0 37 4;
#X connect 93 0 41 4;
#X connect 94 0 34 0;
#X connect 95 0 34 4;
#X connect 96 0 53 0;
#X connect 99 0 58 0;
#X connect 100 0 58 4;
#X connect 102 0 53 4;
#X connect 104 0 68 4;
#X connect 105 0 73 4;
#X connect 106 0 73 0;
#X connect 107 0 62 0;
#X connect 108 0 68 0;
#X connect 109 0 9 1;
#X connect 109 1 9 2;
#X connect 109 2 9 3;
