#N canvas 0 129 1680 743 12;
#X text 25 644 Created by: Matthew Harris;
#X text 25 624 Created on: 20/05/2023;
#X text 303 612 Inspired by Eno's Discrete Music and;
#X text 302 629 https://teropa.info/blog/2016/07/28/javascript-systems-music.html#the-notes-and-intervals-in-music-for-airports
;
#X text 306 669 HEAVILY WIP!!!;
#X obj 40 66 clock;
#X obj 39 34 tgl 15 0 empty empty empty 17 7 0 10 -262144 -1 -1 0 1
;
#X floatatom 100 53 5 20 300 0 - - -;
#X text 135 29 BPM;
#X obj 46 278 duosynth 60 200 2 100;
#X obj 63 366 panner;
#X text 143 312 pan position;
#X text 143 333 0 fully left;
#X text 142 368 1 fully right;
#X text 143 350 50 centered;
#X obj 72 302 loadbang;
#X obj 368 376 panner;
#X obj 427 314 loadbang;
#X obj 401 290 duosynth 64 200 2 100;
#X obj 214 501 +~;
#X obj 281 501 +~;
#X obj 248 548 dac~;
#X msg 77 335 25;
#X msg 432 347 75;
#X text 27 606 v0.4;
#X obj 747 235 tempo_to_absolute_time;
#X floatatom 798 270 5 0 0 0 - - -;
#X obj 914 211 ==;
#X text 647 217 note event;
#X obj 700 506 s left-trigger;
#X obj 44 239 r left-trigger;
#X obj 399 251 r right-trigger;
#X obj 914 239 sel 1;
#X obj 986 261 bng 15 250 50 0 empty empty empty 17 7 0 10 -262144
-1 -1;
#X obj 761 142 loadbang;
#X obj 77 8 loadbang;
#X msg 70 29 60;
#X floatatom 910 143 8 0 0 0 - - -;
#X text 798 542 NOTE MEASURES:BARS:SIXTEENTHS;
#X text 797 564 are zero based for now;
#X text 798 589 A BIT CONFUSING!;
#X text 798 612 0:1:0 -> means 2nd beat of bar 1;
#X text 26 664 Modified on: 24/05/2023;
#X obj 761 193 unpack f f f;
#X text 918 456 hold time ms;
#X text 947 357 Hold time of left hand note;
#X floatatom 837 464 8 0 0 0 - - -;
#X obj 839 419 tempo_to_absolute_time;
#X obj 903 315 loadbang;
#X obj 858 496 s left-hold-time;
#X obj 190 239 r left-hold-time;
#X msg 903 349 0 0 2;
#X obj 903 382 unpack f f f;
#X obj 720 444 s left-note;
#X obj 811 331 t b b b;
#X obj 690 364 loadbang;
#X text 525 442 sends out left note midi num;
#X obj 156 199 r left-note;
#X msg 715 404 60;
#X obj 1213 287 tempo_to_absolute_time;
#X floatatom 1264 322 5 0 0 0 - - -;
#X obj 1380 263 ==;
#X text 1113 269 note event;
#X obj 1166 558 s left-trigger;
#X obj 1380 291 sel 1;
#X obj 1452 313 bng 15 250 50 0 empty empty empty 17 7 0 10 -262144
-1 -1;
#X obj 1227 245 unpack f f f;
#X text 1384 508 hold time ms;
#X floatatom 1303 516 8 0 0 0 - - -;
#X obj 1305 471 tempo_to_absolute_time;
#X obj 1369 367 loadbang;
#X obj 1324 548 s left-hold-time;
#X obj 1369 434 unpack f f f;
#X obj 1186 496 s left-note;
#X obj 1277 383 t b b b;
#X obj 1156 416 loadbang;
#X text 1018 411 comment;
#X text 1414 409 comment;
#X text 774 58 EVENT 1;
#X text 1258 65 EVENT 2;
#X msg 1227 222 2 0 0;
#X msg 761 170 0 0 0;
#X msg 1369 401 0 2 0;
#X msg 1181 456 62;
#X obj 816 101 loop_counter 4;
#X connect 6 0 5 0;
#X connect 7 0 5 1;
#X connect 9 0 10 0;
#X connect 10 0 19 0;
#X connect 10 1 20 0;
#X connect 15 0 22 0;
#X connect 16 0 19 1;
#X connect 16 1 20 1;
#X connect 17 0 23 0;
#X connect 18 0 16 0;
#X connect 19 0 21 0;
#X connect 20 0 21 1;
#X connect 22 0 10 1;
#X connect 23 0 16 1;
#X connect 25 0 26 0;
#X connect 26 0 27 1;
#X connect 27 0 32 0;
#X connect 30 0 9 0;
#X connect 31 0 18 0;
#X connect 32 0 33 0;
#X connect 32 0 54 0;
#X connect 34 0 81 0;
#X connect 35 0 36 0;
#X connect 36 0 5 1;
#X connect 37 0 27 0;
#X connect 37 0 61 0;
#X connect 43 0 25 0;
#X connect 43 1 25 1;
#X connect 43 2 25 2;
#X connect 46 0 49 0;
#X connect 47 0 46 0;
#X connect 48 0 51 0;
#X connect 50 0 9 2;
#X connect 51 0 52 0;
#X connect 52 0 47 0;
#X connect 52 1 47 1;
#X connect 52 2 47 2;
#X connect 54 0 29 0;
#X connect 54 1 46 0;
#X connect 54 2 58 0;
#X connect 55 0 58 0;
#X connect 57 0 9 1;
#X connect 58 0 53 0;
#X connect 59 0 60 0;
#X connect 60 0 61 1;
#X connect 61 0 64 0;
#X connect 64 0 65 0;
#X connect 64 0 74 0;
#X connect 66 0 59 0;
#X connect 66 1 59 1;
#X connect 66 2 59 2;
#X connect 68 0 71 0;
#X connect 69 0 68 0;
#X connect 70 0 82 0;
#X connect 72 0 69 0;
#X connect 72 1 69 1;
#X connect 72 2 69 2;
#X connect 74 0 63 0;
#X connect 74 1 68 0;
#X connect 74 2 83 0;
#X connect 75 0 83 0;
#X connect 80 0 66 0;
#X connect 81 0 43 0;
#X connect 82 0 72 0;
#X connect 83 0 73 0;
#X connect 84 1 37 0;
