#N canvas 11 317 380 626 12;
#N canvas 546 63 1304 917 subpatch 0;
#X obj 183 416 phasor~;
#X obj 182 598 *~;
#X obj 182 632 tabread~ sample1;
#X floatatom 70 338 5 0 0 0 - - - 0;
#X obj 156 148 expr 44100 / $f1;
#X obj 165 299 t b f;
#X obj 180 370 *;
#X text 501 699 volume ctrl;
#X obj 964 623 t b f;
#X floatatom 912 706 5 0 0 0 - - - 0;
#X obj 912 733 -;
#X obj 183 447 *~;
#X obj 182 495 +~;
#X obj 40 149 expr 1 / $f1;
#X obj 68 208 *;
#X obj 488 674 r amp;
#X obj 261 551 s pos;
#X obj 165 232 r speed;
#X obj 908 566 r right-limit;
#X obj 1018 536 r left-limit;
#X obj 261 527 unsig 20;
#X obj 336 779 level_control~;
#X obj 488 719 * 100;
#X obj 478 413 phasor~;
#X obj 480 595 *~;
#X obj 480 628 tabread~ sample1;
#X obj 487 355 *;
#X obj 479 480 *~;
#X obj 479 514 +~;
#X obj 530 279 * 1.002;
#X text 62 415 Regular speed;
#X text 557 408 slightly phased;
#X obj 544 198 r phase;
#X obj 544 241 t b f;
#X obj 681 91 loadbang;
#X msg 685 143 1;
#X obj 685 175 s init_speed;
#X msg 741 144 1;
#X obj 799 232 s init_right;
#X obj 741 203 s init_phase;
#X obj 165 277 f;
#X msg 798 144 1;
#X msg 348 229 0;
#X obj 348 190 r reset_phase;
#X text 896 41 line in recording method;
#X obj 913 187 adc~;
#X obj 913 231 tabwrite~ sample1;
#X obj 900 71 r record;
#X obj 900 98 tgl 15 0 empty empty empty 17 7 0 10 #fcfcfc #000000 #000000 0 1;
#X obj 902 125 moses 1;
#X msg 960 186 stop;
#X obj 1012 188 bng 15 250 50 0 empty empty empty 17 7 0 10 #fcfcfc #000000 #000000;
#X obj 909 374 openpanel;
#X obj 909 436 soundfiler;
#X msg 909 405 read -resize \$1 sample1;
#X obj 909 343 r load;
#X text 907 313 load sample from file;
#X obj 909 471 s num-samples;
#X obj 156 78 r num-samples;
#X text 678 65 Initialise UI params;
#X text 1043 823 TODO;
#X text 1044 847 - Get sample rate properly;
#X obj 498 572 r num-samples;
#X obj 200 575 r num-samples;
#X text 151 127 reciprocal of length in seconds?;
#X obj 517 488 r left-limit;
#X obj 244 463 r left-limit;
#X text 62 397 LEFT CHANNEL;
#X text 557 390 RIGHT CHANNEL;
#X obj 605 680 loadbang;
#X text 673 680 set initial volume to 80;
#X obj 605 755 s init_amp;
#X msg 605 718 0.8;
#X text 908 514 calculate proportion of sample;
#X obj 955 791 s sample_amnt;
#X obj 249 416 r sample_amnt;
#X obj 518 457 r sample_amnt;
#X obj 41 77 r sample_amnt;
#X text 951 765 this is the percentage of the sample to play;
#X text 251 397 % of sample to play;
#X text 251 444 offset to sample start pos;
#X text 262 508 update pos slider;
#X text 214 599 gets the position of the sample;
#X text 531 529 Same operations as LHS!;
#X text 100 203 dont understand this bit...;
#X obj 37 121 t b f;
#X obj 156 108 t b f;
#X msg 696 232 0;
#X msg 749 231 1;
#X obj 695 271 s left-limit;
#X obj 751 304 s right-limit;
#X obj 1137 428 r toggle-link;
#X obj 1139 476 i;
#X floatatom 1139 500 5 0 0 0 - - - 0;
#X obj 1137 452 t b i;
#X obj 1032 620 spigot;
#X obj 1197 564 r right-limit;
#X obj 1049 731 s init_right;
#X obj 1049 707 +;
#X obj 1071 681 f;
#X obj 1126 641 -;
#X floatatom 1085 707 5 0 0 0 - - - 0;
#X obj 1137 524 spigot;
#X obj 1128 584 f;
#X obj 1137 548 t b;
#X obj 1179 606 f;
#X text 1147 679 convoluted logic;
#X text 1146 717 the right hand pos;
#X text 1149 738 when linked;
#X text 1147 697 to offset;
#X connect 0 0 11 0;
#X connect 1 0 2 0;
#X connect 2 0 21 0;
#X connect 3 0 6 0;
#X connect 3 0 26 0;
#X connect 4 0 14 1;
#X connect 5 0 3 0;
#X connect 5 1 6 1;
#X connect 5 1 29 0;
#X connect 6 0 0 0;
#X connect 8 0 9 0;
#X connect 8 0 99 0;
#X connect 8 1 10 1;
#X connect 9 0 10 0;
#X connect 10 0 74 0;
#X connect 11 0 12 0;
#X connect 12 0 1 0;
#X connect 12 0 20 0;
#X connect 13 0 14 0;
#X connect 14 0 3 0;
#X connect 15 0 22 0;
#X connect 17 0 40 0;
#X connect 18 0 9 0;
#X connect 19 0 8 0;
#X connect 19 0 95 0;
#X connect 19 0 103 1;
#X connect 20 0 16 0;
#X connect 22 0 21 2;
#X connect 23 0 27 0;
#X connect 24 0 25 0;
#X connect 25 0 21 1;
#X connect 26 0 23 0;
#X connect 27 0 28 0;
#X connect 28 0 24 0;
#X connect 29 0 26 1;
#X connect 32 0 33 0;
#X connect 33 0 40 0;
#X connect 33 1 29 1;
#X connect 34 0 35 0;
#X connect 34 0 37 0;
#X connect 34 0 41 0;
#X connect 34 0 87 0;
#X connect 34 0 88 0;
#X connect 35 0 36 0;
#X connect 37 0 39 0;
#X connect 40 0 5 0;
#X connect 41 0 38 0;
#X connect 42 0 0 1;
#X connect 42 0 23 1;
#X connect 43 0 42 0;
#X connect 45 0 46 0;
#X connect 47 0 48 0;
#X connect 48 0 49 0;
#X connect 49 0 50 0;
#X connect 49 1 51 0;
#X connect 50 0 46 0;
#X connect 51 0 46 0;
#X connect 52 0 54 0;
#X connect 53 0 57 0;
#X connect 54 0 53 0;
#X connect 55 0 52 0;
#X connect 58 0 86 0;
#X connect 62 0 24 1;
#X connect 63 0 1 1;
#X connect 65 0 28 1;
#X connect 66 0 12 1;
#X connect 69 0 72 0;
#X connect 72 0 21 2;
#X connect 72 0 71 0;
#X connect 75 0 11 1;
#X connect 76 0 27 1;
#X connect 77 0 85 0;
#X connect 85 0 13 0;
#X connect 85 1 13 0;
#X connect 86 0 4 0;
#X connect 86 0 13 0;
#X connect 86 1 4 0;
#X connect 87 0 89 0;
#X connect 88 0 90 0;
#X connect 91 0 94 0;
#X connect 92 0 93 0;
#X connect 93 0 95 1;
#X connect 93 0 102 1;
#X connect 94 0 92 0;
#X connect 94 0 102 0;
#X connect 94 1 92 1;
#X connect 95 0 98 0;
#X connect 96 0 105 1;
#X connect 98 0 97 0;
#X connect 99 0 98 1;
#X connect 99 0 101 0;
#X connect 100 0 99 1;
#X connect 102 0 104 0;
#X connect 103 0 100 1;
#X connect 104 0 103 0;
#X connect 104 0 105 0;
#X connect 105 0 100 0;
#X restore 260 545 pd subpatch;
#X obj 40 31 cnv 15 300 500 empty empty empty 20 12 0 14 #dcdcdc #404040 0;
#X obj 40 31 cnv 15 300 60 empty empty empty 20 12 0 14 #c4c4fc #404040 0;
#X obj 40 91 cnv 15 300 100 empty empty empty 20 12 0 14 #e0c4fc #404040 0;
#X obj 40 192 cnv 15 300 200 empty empty empty 20 12 0 14 #c4c4fc #404040 0;
#X obj 40 392 cnv 15 300 100 empty empty empty 20 12 0 14 #e0c4fc #404040 0;
#X obj 54 43 bng 30 250 50 0 load empty empty 17 7 0 10 #c4fcc4 #00f8fc #00f8fc;
#X text 88 41 Load a file;
#X obj 57 114 hsl 260 15 0 1 0 0 left-limit empty empty -2 -8 0 10 #fcfcfc #000000 #000000 0 1;
#X obj 57 139 hsl 260 15 0 1 0 0 right-limit init_right empty -2 -8 0 10 #fcfcfc #000000 #000000 0 1;
#N canvas 0 22 450 278 (subpatch) 0;
#X array sample1 134832 float 2;
#X coords 0 1 134832 -1 200 140 1;
#X restore 81 212 graph;
#X obj 84 363 hsl 198 15 0 1 0 0 empty pos empty -2 -8 0 10 #fcfcfc #000000 #000000 0 1;
#X obj 61 412 hsl 260 15 -2 2 0 0 speed init_speed empty -2 -8 0 10 #fcfcfc #000000 #000000 0 1;
#X obj 61 512 hsl 260 15 0 1 0 0 amp init_amp empty -2 -8 0 10 #fcfcfc #000000 #000000 0 1;
#X text 57 492 volume;
#X floatatom 286 391 5 0 0 0 - speed - 0;
#X text 138 7 ITS GONNA RAIN;
#X obj 62 456 hsl 260 15 1 1.1 0 1 phase init_phase empty -2 -8 0 10 #fcfcfc #000000 #000000 1500 1;
#X obj 237 474 bng 15 250 50 0 reset_phase empty empty 17 7 0 10 #fcfcfc #000000 #000000;
#X floatatom 285 434 5 0 0 2 - phase - 0;
#X obj 217 44 bng 30 250 50 0 record empty empty 17 7 0 10 #00f8fc #000000 #000000;
#X text 40 566 Created by: Matthew Harris;
#X text 40 585 Created on: 29/10/2020;
#X text 252 41 Record Input;
#X text 53 91 Sample Start;
#X text 238 162 Sample End;
#X text 56 390 Playback Speed;
#X text 57 435 Relative Phase;
#X text 257 474 Reset Phase;
#X text 40 602 Modified on: 07/05/2023;
#X obj 55 163 tgl 19 0 toggle-link empty empty 0 -10 0 12 #fcfcfc #000000 #000000 0 1;
#X text 84 162 link;
#X text 41 545 v1.2;
