#N canvas 751 225 795 519 12;
#X obj 35 71 inlet~;
#X floatatom 229 256 5 0 0 0 - - -;
#X obj 38 377 +~;
#X obj 38 264 *~;
#X text 69 265 dry amt;
#X obj 56 223 expr 1 - $f1;
#X obj 116 329 *~;
#X text 146 329 wet amt;
#X obj 228 337 *~;
#X obj 223 366 s~ feedback-sig;
#X obj 111 127 r~ feedback-sig;
#X text 33 47 audio signal;
#X obj 38 439 outlet~;
#X obj 229 282 delread~ \$0-delay-buffer 0;
#X obj 236 69 inlet;
#X obj 236 98 s \$0-delay-time;
#X text 282 69 ms;
#X obj 55 162 delwrite~ \$0-delay-buffer \$1;
#X obj 404 65 inlet;
#X obj 405 134 s \$0-fdbk-amt;
#X obj 404 96 clip 0 1;
#X obj 322 30 loadbang;
#X obj 322 68 f \$2;
#X obj 486 32 loadbang;
#X obj 486 62 f \$3;
#X obj 260 312 r \$0-fdbk-amt;
#X obj 580 62 inlet;
#X obj 580 93 clip 0 1;
#X obj 580 123 s \$0-dry-wet-mix;
#X obj 674 37 loadbang;
#X obj 674 63 f \$4;
#X obj 56 192 r \$0-dry-wet-mix;
#X obj 74 290 r \$0-dry-wet-mix;
#X text 228 451 Created by: Matthew Harris;
#X text 230 413 v0.1;
#X text 229 471 Modified on:;
#X text 228 431 Created on: 29/05/2023;
#X text 450 208 mono_delay.pd;
#X text 450 228 Single delay line with feedback;
#X text 450 268 Inputs:;
#X text 473 291 -1 Audio signal to delay;
#X text 474 306 -2 delay time in ms (creation arg 2);
#X text 474 323 -3 feedback amount (creation arg 3;
#X text 475 340 -4 dry/wet mix (creation arg 1);
#X text 450 249 Max delay time is in ms and creation arg 1;
#X text 455 368 Output: mix of wet & dry signal;
#X obj 229 227 r \$0-delay-time;
#X connect 0 0 17 0;
#X connect 0 0 3 0;
#X connect 1 0 13 0;
#X connect 2 0 12 0;
#X connect 3 0 2 0;
#X connect 5 0 3 1;
#X connect 6 0 2 1;
#X connect 8 0 9 0;
#X connect 10 0 17 0;
#X connect 13 0 6 0;
#X connect 13 0 8 0;
#X connect 14 0 15 0;
#X connect 18 0 20 0;
#X connect 20 0 19 0;
#X connect 21 0 22 0;
#X connect 22 0 15 0;
#X connect 23 0 24 0;
#X connect 24 0 20 0;
#X connect 25 0 8 1;
#X connect 26 0 27 0;
#X connect 27 0 28 0;
#X connect 29 0 30 0;
#X connect 30 0 27 0;
#X connect 31 0 5 0;
#X connect 32 0 6 1;
#X connect 46 0 1 0;
