#N canvas 796 161 884 466 12;
#X obj 112 30 inlet~;
#X obj 59 199 outlet~;
#X obj 145 200 outlet~;
#X text 45 224 left signal;
#X text 144 225 right signal;
#X obj 57 160 *~;
#X obj 162 154 *~;
#X obj 27 114 r \$0-left-ratio;
#X obj 172 115 r \$0-right-ratio;
#X obj 364 31 inlet;
#X text 167 31 Audio signal input;
#X text 515 30 source position in stereo field;
#X text 515 48 0 fully left;
#X text 515 65 0.5 centered;
#X text 514 83 1 fully right;
#X text 621 56 map to range -pi/4 \, pi/4 (-45 \, 45);
#X text 620 71 -45 is fully right \, 45 is fully left;
#X text 621 86 0 -> 45 \, 0.5 -> 0 \, 1 -> -45;
#X obj 622 216 expr $f1 * ($f3 - $f2) + $f2;
#X floatatom 623 244 5 0 0 0 - - -;
#X obj 621 185 / 100;
#X floatatom 628 147 5 0 100 0 - - -;
#X text 29 417 Created by: Matthew Harris;
#X text 31 379 v0.1;
#X text 29 397 Created on: 21/05/2023;
#X text 30 437 Modified on:;
#X text 403 378 panner.pd;
#X text 403 396 Stereo panning object which implents a constant panning
;
#X text 404 416 law. Note: Not designed for real time source position
;
#X text 405 436 movement;
#X msg 716 168 45;
#X msg 813 167 -45;
#X obj 364 62 s \$0-unmapped-pos;
#X obj 625 324 s \$0-source-angle;
#X obj 316 118 r \$0-source-angle;
#X text 708 300 NOTE: OUTPUT IN RADIANS;
#X obj 623 272 / 180;
#X obj 625 296 * 3.14159;
#X floatatom 316 149 5 0 0 0 - - -;
#X text 343 232 LHS;
#X obj 313 196 cos;
#X obj 360 195 sin;
#X obj 317 171 t f f;
#X obj 313 232 +;
#X text 470 266 sqrt(2)/2;
#X obj 313 318 s \$0-left-ratio;
#X obj 313 264 * 0.7071;
#X floatatom 313 291 8 0 0 0 - - -;
#X obj 402 234 -;
#X text 440 234 RHS;
#X obj 402 264 * 0.7071;
#X obj 435 317 s \$0-right-ratio;
#X floatatom 403 290 8 0 0 0 - - -;
#X obj 615 125 r \$0-unmapped-pos;
#X obj 763 135 loadbang;
#X connect 0 0 5 0;
#X connect 0 0 6 0;
#X connect 5 0 1 0;
#X connect 6 0 2 0;
#X connect 7 0 5 1;
#X connect 8 0 6 1;
#X connect 9 0 32 0;
#X connect 18 0 19 0;
#X connect 19 0 36 0;
#X connect 20 0 18 0;
#X connect 21 0 20 0;
#X connect 30 0 18 1;
#X connect 31 0 18 2;
#X connect 34 0 38 0;
#X connect 36 0 37 0;
#X connect 37 0 33 0;
#X connect 38 0 42 0;
#X connect 40 0 43 0;
#X connect 40 0 48 0;
#X connect 41 0 43 1;
#X connect 41 0 48 1;
#X connect 42 0 40 0;
#X connect 42 1 41 0;
#X connect 43 0 46 0;
#X connect 46 0 47 0;
#X connect 47 0 45 0;
#X connect 48 0 50 0;
#X connect 50 0 52 0;
#X connect 52 0 51 0;
#X connect 53 0 21 0;
#X connect 54 0 30 0;
#X connect 54 0 31 0;
