#N canvas 587 97 867 587 12;
#X obj 242 96 inlet;
#X text 242 64 peak;
#X text 242 77 level;
#X obj 310 96 inlet;
#X text 309 75 attack;
#X obj 378 96 inlet;
#X obj 442 95 inlet;
#X obj 695 90 inlet;
#X text 377 75 decay;
#X text 437 58 sustain;
#X text 694 69 release;
#X text 129 64 trigger;
#X obj 133 100 inlet;
#X obj 771 411 r line;
#X obj 771 440 line~;
#X obj 771 469 outlet~;
#X obj 142 328 f;
#X obj 152 296 / 100;
#X obj 120 376 pack 0 \$2;
#X obj 121 415 s line;
#X msg 81 338 0;
#X text 8 306 reset to;
#X text 9 325 zero;
#X text 9 346 on bang;
#X obj 310 430 s line;
#X obj 386 310 / 100;
#X obj 314 345 f;
#X obj 314 305 delay;
#X text 557 56 sustain;
#X text 558 73 time;
#X text 437 76 level;
#X obj 561 93 inlet;
#X obj 537 374 delay;
#X obj 607 282 +;
#X obj 617 325 +;
#X obj 535 451 s line;
#X obj 537 414 pack 0 1000;
#X obj 180 343 r attack;
#X obj 354 224 r attack;
#X obj 568 225 r attack;
#X obj 304 126 s attack;
#X obj 645 218 r decay;
#X obj 372 359 r decay;
#X obj 378 125 s decay;
#X obj 442 125 s sustain-lvl;
#X obj 392 252 r sustain-lvl;
#X obj 560 124 s sustain-time;
#X obj 683 272 r sustain-time;
#X obj 693 126 s release;
#X obj 661 352 r release;
#X obj 135 131 s reset;
#X obj 56 227 r reset;
#X obj 501 221 r reset;
#X obj 283 223 r reset;
#X obj 150 225 r peak-lvl;
#X obj 222 130 s peak-lvl;
#X text 105 204 Attack portion;
#X text 293 199 decay -> sustain portion;
#X text 514 197 holds for sustain time then goes into release;
#X text 32 491 v0.1;
#X text 30 529 Created by: Matthew Harris;
#X text 30 509 Created on: 16/05/2023;
#X obj 311 392 pack 0 \$3;
#X obj 386 281 f \$4;
#X obj 646 303 f \$5;
#X obj 631 255 f \$3;
#X obj 576 258 f \$3;
#X obj 329 266 f \$2;
#X obj 611 386 f \$6;
#X obj 150 273 f \$1;
#X connect 0 0 55 0;
#X connect 3 0 40 0;
#X connect 5 0 43 0;
#X connect 6 0 44 0;
#X connect 7 0 48 0;
#X connect 12 0 50 0;
#X connect 13 0 14 0;
#X connect 14 0 15 0;
#X connect 16 0 18 0;
#X connect 17 0 16 0;
#X connect 18 0 19 0;
#X connect 20 0 19 0;
#X connect 25 0 26 1;
#X connect 26 0 62 0;
#X connect 27 0 26 0;
#X connect 31 0 46 0;
#X connect 32 0 36 0;
#X connect 33 0 34 0;
#X connect 34 0 32 1;
#X connect 36 0 35 0;
#X connect 37 0 18 1;
#X connect 38 0 67 1;
#X connect 39 0 66 1;
#X connect 41 0 65 1;
#X connect 42 0 62 1;
#X connect 45 0 63 1;
#X connect 47 0 64 1;
#X connect 49 0 68 1;
#X connect 51 0 20 0;
#X connect 51 0 69 0;
#X connect 52 0 32 0;
#X connect 52 0 66 0;
#X connect 52 0 65 0;
#X connect 52 0 64 0;
#X connect 52 0 68 0;
#X connect 53 0 27 0;
#X connect 53 0 67 0;
#X connect 53 0 63 0;
#X connect 54 0 69 1;
#X connect 62 0 24 0;
#X connect 63 0 25 0;
#X connect 64 0 34 1;
#X connect 65 0 33 1;
#X connect 66 0 33 0;
#X connect 67 0 27 1;
#X connect 68 0 36 1;
#X connect 69 0 17 0;
