#N canvas 587 97 867 587 12;
#X obj 242 96 inlet;
#X text 242 64 peak;
#X text 242 77 level;
#X obj 310 96 inlet;
#X text 309 75 attack;
#X obj 378 96 inlet;
#X obj 442 95 inlet;
#X obj 695 90 inlet;
#X text 377 75 decay;
#X text 437 58 sustain;
#X text 694 69 release;
#X text 129 64 trigger;
#X obj 133 100 inlet;
#X obj 771 440 line~;
#X obj 771 469 outlet~;
#X obj 142 328 f;
#X obj 152 296 / 100;
#X obj 120 376 pack 0 \$2;
#X msg 81 338 0;
#X text 8 306 reset to;
#X text 9 325 zero;
#X text 9 346 on bang;
#X obj 386 310 / 100;
#X obj 314 345 f;
#X obj 314 318 delay;
#X text 557 56 sustain;
#X text 558 73 time;
#X text 437 76 level;
#X obj 561 93 inlet;
#X obj 537 374 delay;
#X obj 607 282 +;
#X obj 617 325 +;
#X obj 537 414 pack 0 1000;
#X text 105 204 Attack portion;
#X text 293 199 decay -> sustain portion;
#X text 514 197 holds for sustain time then goes into release;
#X text 30 529 Created by: Matthew Harris;
#X text 30 509 Created on: 16/05/2023;
#X obj 311 392 pack 0 \$3;
#X obj 386 281 f \$4;
#X obj 646 303 f \$5;
#X obj 631 255 f \$3;
#X obj 329 266 f \$2;
#X obj 611 386 f \$6;
#X obj 150 273 f \$1;
#X obj 576 258 f \$2;
#X obj 566 341 t b f;
#X obj 293 290 t b f;
#X obj 125 131 s \$0-reset;
#X obj 56 227 r \$0-reset;
#X obj 266 225 r \$0-reset;
#X obj 150 225 r \$0-peak-lvl;
#X obj 180 343 r \$0-attack;
#X obj 354 224 r \$0-attack;
#X obj 386 252 r \$0-sustain-lvl;
#X obj 372 359 r \$0-decay;
#X obj 487 220 r \$0-reset;
#X obj 563 219 r \$0-attack;
#X obj 653 219 r \$0-decay;
#X obj 683 272 r \$0-sustain-time;
#X obj 661 352 r \$0-release;
#X obj 242 151 s \$0-peak-lvl;
#X obj 378 152 s \$0-decay;
#X obj 295 126 s \$0-attack;
#X obj 442 125 s \$0-sustain-lvl;
#X obj 562 148 s \$0-sustain-time;
#X obj 695 122 s \$0-release;
#X obj 121 415 s \$0-line;
#X obj 310 430 s \$0-line;
#X obj 535 451 s \$0-line;
#X obj 771 411 r \$0-line;
#X text 32 491 v1.1;
#X text 31 549 Modified on: 20/05/2023;
#X connect 0 0 61 0;
#X connect 3 0 63 0;
#X connect 5 0 62 0;
#X connect 6 0 64 0;
#X connect 7 0 66 0;
#X connect 12 0 48 0;
#X connect 13 0 14 0;
#X connect 15 0 17 0;
#X connect 16 0 15 0;
#X connect 17 0 67 0;
#X connect 18 0 67 0;
#X connect 22 0 23 1;
#X connect 23 0 38 0;
#X connect 24 0 23 0;
#X connect 28 0 65 0;
#X connect 29 0 32 0;
#X connect 30 0 31 0;
#X connect 31 0 46 0;
#X connect 32 0 69 0;
#X connect 38 0 68 0;
#X connect 39 0 22 0;
#X connect 40 0 31 1;
#X connect 41 0 30 1;
#X connect 42 0 47 0;
#X connect 43 0 32 1;
#X connect 44 0 16 0;
#X connect 45 0 30 0;
#X connect 46 0 29 0;
#X connect 46 1 29 1;
#X connect 47 0 24 0;
#X connect 47 1 24 1;
#X connect 49 0 18 0;
#X connect 49 0 44 0;
#X connect 50 0 42 0;
#X connect 50 0 39 0;
#X connect 51 0 44 1;
#X connect 52 0 17 1;
#X connect 53 0 42 1;
#X connect 54 0 39 1;
#X connect 55 0 38 1;
#X connect 56 0 41 0;
#X connect 56 0 40 0;
#X connect 56 0 43 0;
#X connect 56 0 45 0;
#X connect 57 0 45 1;
#X connect 58 0 41 1;
#X connect 59 0 40 1;
#X connect 60 0 43 1;
#X connect 70 0 13 0;
