#N canvas 445 322 907 590 12;
#X obj 27 136 loadbang;
#X obj 156 137 loadbang;
#X msg 27 174 60;
#X msg 156 173 60;
#X floatatom 156 213 5 0 0 0 - - -;
#X text 198 173 BPM;
#X text 63 174 seconds;
#X text 64 191 in 1 min;
#X obj 131 284 /;
#X obj 131 328 send 4th_time;
#X obj 232 180 inlet;
#X obj 134 245 t b f;
#X text 23 486 https://www.youtube.com/watch?v=fgkUChwL2B4;
#X text 23 466 adapted from:;
#X text 23 511 created 14/05/2023;
#X text 24 533 created by Matthew Harris;
#X text 23 447 v0.1;
#X text 107 307 beat every x seconds;
#X text 380 21 Clock Multiplication;
#X text 25 16 Quarter Note frequency;
#X obj 366 68 receive ON;
#X obj 366 175 metro;
#X obj 366 222 bng 15 250 50 0 empty empty empty 17 7 0 10 -262144
-1 -1;
#X obj 365 263 send whole_note;
#X obj 458 68 receive 4th_time;
#X floatatom 457 133 5 0 0 0 - - -;
#X obj 455 165 s whole_note_time;
#X obj 27 83 send ON;
#X obj 458 104 * 4000;
#X obj 639 65 receive ON;
#X obj 640 171 metro;
#X obj 640 218 bng 15 250 50 0 empty empty empty 17 7 0 10 -262144
-1 -1;
#X obj 731 65 receive 4th_time;
#X text 514 119 converts to ms;
#X text 515 102 multiply and;
#X obj 731 101 * 1000;
#X obj 639 259 send quarter_note;
#X obj 366 312 receive ON;
#X obj 366 436 metro;
#X obj 366 483 bng 15 250 50 0 empty empty empty 17 7 0 10 -262144
-1 -1;
#X obj 458 312 receive 4th_time;
#X floatatom 459 405 5 0 0 0 - - -;
#X obj 638 314 receive ON;
#X obj 638 433 metro;
#X obj 638 480 bng 15 250 50 0 empty empty empty 17 7 0 10 -262144
-1 -1;
#X obj 730 314 receive 4th_time;
#X floatatom 729 405 5 0 0 0 - - -;
#X obj 365 524 send eigth_note;
#X obj 637 521 send sixteenth_note;
#X obj 458 346 / 2;
#X obj 458 379 * 1000;
#X obj 452 442 s eigth_note_time;
#X obj 727 437 s sixteenth_note_time;
#X obj 730 350 / 4;
#X obj 731 378 * 1000;
#X obj 27 51 inlet;
#X text 85 52 expects toggle as inlet;
#X obj 731 146 send quarter_note_time;
#X connect 0 0 2 0;
#X connect 1 0 3 0;
#X connect 2 0 8 0;
#X connect 3 0 4 0;
#X connect 4 0 11 0;
#X connect 8 0 9 0;
#X connect 10 0 4 0;
#X connect 11 0 8 0;
#X connect 11 1 8 1;
#X connect 20 0 21 0;
#X connect 21 0 22 0;
#X connect 22 0 23 0;
#X connect 24 0 28 0;
#X connect 25 0 26 0;
#X connect 25 0 21 1;
#X connect 28 0 25 0;
#X connect 29 0 30 0;
#X connect 30 0 31 0;
#X connect 31 0 36 0;
#X connect 32 0 35 0;
#X connect 35 0 30 1;
#X connect 35 0 57 0;
#X connect 37 0 38 0;
#X connect 38 0 39 0;
#X connect 39 0 47 0;
#X connect 40 0 49 0;
#X connect 41 0 38 1;
#X connect 41 0 51 0;
#X connect 42 0 43 0;
#X connect 43 0 44 0;
#X connect 44 0 48 0;
#X connect 45 0 53 0;
#X connect 46 0 43 1;
#X connect 46 0 52 0;
#X connect 49 0 50 0;
#X connect 50 0 41 0;
#X connect 53 0 54 0;
#X connect 54 0 46 0;
#X connect 55 0 27 0;
