#N canvas 795 239 846 648 12;
#X floatatom 332 110 3 0 100 0 dB - -;
#X obj 354 139 bng 15 250 50 0 empty empty mute 17 7 0 10 -262144 -1
-1;
#X msg 255 186 \; pd dsp 1;
#X obj 352 206 s \$0-master-out;
#X obj 19 82 r \$0-master-out;
#X obj 19 110 dbtorms;
#X obj 19 138 pack 0 50;
#X obj 19 166 line~;
#X obj 21 240 *~;
#X obj 16 305 dac~;
#X obj 99 166 inlet~;
#X obj 99 194 hip~ 3;
#X obj 163 166 inlet~;
#X obj 163 194 hip~ 3;
#X obj 107 251 *~;
#X obj 356 286 r \$0-master-out;
#X obj 356 314 moses 1;
#X obj 297 335 f;
#X obj 297 363 moses 1;
#X obj 295 445 f;
#X obj 297 391 t b;
#X obj 356 473 s \$0-master-lvl;
#X obj 354 66 r \$0-master-lvl;
#X floatatom 300 510 5 0 0 0 - - -;
#X msg 364 430 0;
#X obj 284 52 inlet;
#X connect 0 0 2 0;
#X connect 0 0 3 0;
#X connect 1 0 17 0;
#X connect 4 0 5 0;
#X connect 5 0 6 0;
#X connect 6 0 7 0;
#X connect 7 0 8 0;
#X connect 7 0 14 0;
#X connect 8 0 9 0;
#X connect 10 0 11 0;
#X connect 11 0 8 1;
#X connect 12 0 13 0;
#X connect 13 0 14 1;
#X connect 14 0 9 1;
#X connect 15 0 16 0;
#X connect 15 0 17 1;
#X connect 16 1 19 1;
#X connect 17 0 18 0;
#X connect 18 0 20 0;
#X connect 18 1 24 0;
#X connect 19 0 21 0;
#X connect 19 0 23 0;
#X connect 20 0 19 0;
#X connect 22 0 0 0;
#X connect 24 0 21 0;
#X connect 24 0 23 0;
#X connect 25 0 0 0;
#X coords 0 -1 1 1 85 60 1 310 100;
