#N canvas 0 25 1680 997 12;
#X obj 724 243 hradio 15 1 0 16 empty empty empty 0 -8 0 10 -262144
-1 -1 15;
#X obj 787 79 + 1;
#X obj 720 39 r sixteenth_note;
#X obj 787 108 mod 16;
#X text 623 124 zero indexed;
#X obj 721 130 f -1;
#X obj 689 71 r ON;
#X msg 696 93 -1;
#X text 843 39 16th counter;
#X floatatom 737 166 5 0 0 0 - - -;
#X obj 422 241 hradio 15 1 0 4 empty empty empty 0 -8 0 10 -262144
-1 -1 3;
#X obj 485 77 + 1;
#X obj 419 128 f -1;
#X obj 387 69 r ON;
#X msg 394 91 -1;
#X floatatom 418 159 5 0 0 0 - - -;
#X obj 418 37 r quarter_note;
#X text 528 37 quarter counter;
#X obj 485 106 mod 4;
#X obj 218 65 r whole_note;
#X obj 267 148 + 1;
#X floatatom 260 230 5 0 0 0 - - -;
#X obj 166 87 r ON;
#X msg 173 109 -2;
#X obj 218 170 f -2;
#X text 79 108 -2 because it;
#X text 64 133 gets 2 bangs on reset;
#X floatatom 304 152 5 0 0 0 - - -;
#X obj 265 196 mod 8;
#X text 324 169 loop length;
#X text 23 504 Created by: Matthew Harris;
#X text 25 466 v0.1;
#X text 23 484 Created on: 28/05/2023;
#X text 24 524 Modified on:;
#X obj 266 314 pack f f f;
#X text 266 380 output measures:beats:sixteenths;
#X text 929 464 output absolute time in seconds from loop start;
#X text 395 473 Outputs the current MEASURE:BEAT:SIXTEENTH of a loop
of a specified length. Only makes sense to use with the CLOCK object
which outputs the note counters;
#X text 396 518 Takes as input a specified loop length. Specify in
the;
#X text 397 556 Also outputs in absolute time;
#X obj 268 359 outlet;
#X obj 959 439 outlet;
#X obj 33 228 inlet;
#X text 399 581 NOTE ONLY MEASURES WHOLE MEASURE LENGTH LOOPS AT THE
MOMENT;
#X text 397 538 MEASURES format;
#X obj 33 257 f;
#X obj 34 290 s \$0-loop-length;
#X obj 269 110 r \$0-loop-length;
#X obj 100 226 loadbang;
#X obj 107 256 f \$1;
#X obj 851 293 r sixteenth_note;
#X obj 921 319 r sixteenth_note_time;
#X obj 791 292 r ON;
#X obj 860 343 f;
#X obj 891 399 +;
#X obj 793 341 -;
#X floatatom 791 373 5 0 0 0 - - -;
#X msg 791 318 0;
#X text 834 372 offset so first beat is 0 time;
#X text 1082 360 reset with loop length;
#X obj 319 230 sel 0;
#X obj 653 293 r \$0-loop-start;
#X obj 320 270 s \$0-loop-start;
#X obj 398 322 bng 15 250 50 0 empty empty empty 17 7 0 10 -262144
-1 -1;
#X connect 1 0 3 0;
#X connect 2 0 5 0;
#X connect 3 0 5 1;
#X connect 5 0 1 0;
#X connect 5 0 9 0;
#X connect 6 0 7 0;
#X connect 7 0 5 0;
#X connect 9 0 34 2;
#X connect 9 0 0 0;
#X connect 11 0 18 0;
#X connect 12 0 11 0;
#X connect 12 0 15 0;
#X connect 13 0 14 0;
#X connect 14 0 12 0;
#X connect 15 0 34 1;
#X connect 15 0 10 0;
#X connect 16 0 12 0;
#X connect 18 0 12 1;
#X connect 19 0 24 0;
#X connect 20 0 28 0;
#X connect 21 0 34 0;
#X connect 22 0 23 0;
#X connect 23 0 24 0;
#X connect 24 0 20 0;
#X connect 27 0 28 1;
#X connect 28 0 21 0;
#X connect 28 0 24 1;
#X connect 28 0 60 0;
#X connect 34 0 40 0;
#X connect 42 0 45 0;
#X connect 45 0 46 0;
#X connect 47 0 27 0;
#X connect 48 0 49 0;
#X connect 49 0 46 0;
#X connect 50 0 53 0;
#X connect 51 0 54 1;
#X connect 51 0 55 1;
#X connect 52 0 57 0;
#X connect 53 0 54 0;
#X connect 53 0 41 0;
#X connect 54 0 53 1;
#X connect 55 0 53 0;
#X connect 55 0 56 0;
#X connect 57 0 55 0;
#X connect 60 0 62 0;
#X connect 60 0 63 0;
#X connect 61 0 57 0;
