#N canvas 0 25 859 618 12;
#X text 750 265 hold time ms;
#X floatatom 671 265 8 0 0 0 - - -;
#X obj 619 128 tempo_to_absolute_time;
#X obj 401 197 t b b b;
#X obj 545 146 loadbang;
#X text 357 251 sends out left note midi num;
#X text 25 429 Created by: Matthew Harris;
#X text 27 391 v0.1;
#X text 25 409 Created on: 28/05/2023;
#X text 26 449 comment;
#X text 350 391 Sends out Note Events at a specified time;
#X text 351 497 A note event consists of:;
#X text 378 518 - A trigger (bang);
#X text 379 549 - Hold time (ms);
#X text 379 533 - Midi note number;
#X text 349 415 Input: measures:beats:sixteenths the event should occur
;
#X text 395 435 MIDI note;
#X text 394 453 hold time measures:beats::sixteenths;
#X obj 242 59 inlet;
#X obj 241 94 unpack f f f;
#X obj 238 127 tempo_to_absolute_time;
#X obj 432 59 inlet;
#X text 244 33 event time;
#X text 427 33 midi note;
#X text 546 32 hold time;
#X obj 548 59 inlet;
#X obj 550 87 unpack f f f;
#X obj 37 63 inlet;
#X text 37 33 loop counter;
#X obj 50 118 ==;
#X obj 54 161 sel 1;
#X text 101 160 trigger event when loop counter matches event time
;
#X obj 536 189 f;
#X obj 508 349 outlet;
#X obj 733 55 inlet;
#X obj 734 88 f;
#X obj 508 326 pack f f f;
#X text 392 472 retrigger (yes/no);
#X connect 1 0 36 1;
#X connect 2 0 1 0;
#X connect 3 1 1 0;
#X connect 3 2 32 0;
#X connect 18 0 19 0;
#X connect 19 0 20 0;
#X connect 19 1 20 1;
#X connect 19 2 20 2;
#X connect 20 0 29 1;
#X connect 21 0 32 0;
#X connect 25 0 26 0;
#X connect 26 0 2 0;
#X connect 26 1 2 1;
#X connect 26 2 2 2;
#X connect 27 0 29 0;
#X connect 29 0 30 0;
#X connect 30 0 3 0;
#X connect 32 0 36 0;
#X connect 34 0 35 0;
#X connect 35 0 36 2;
#X connect 36 0 33 0;
