#N canvas 777 267 727 459 12;
#X obj 31 62 r whole_note_time;
#X obj 329 69 r sixteenth_note_time;
#X obj 182 69 r quarter_note_time;
#X obj 117 219 expr $f1 + $f2 + $f3;
#X obj 84 156 *;
#X obj 185 160 *;
#X obj 306 173 *;
#X obj 113 97 inlet;
#X obj 211 104 inlet;
#X obj 338 105 inlet;
#X obj 117 249 outlet;
#X text 31 347 Created by: Matthew Harris;
#X text 33 309 v0.1;
#X text 31 327 Created on: 23/05/2023;
#X text 32 367 Modified on:;
#X text 295 313 Converts from tempo time measured as;
#X text 296 352 Doesn't make sense without using the clock object;
#X text 295 369 It will recieve these timing signals (ms) from that
object;
#X text 294 389 And use it calculate the an absolute time in (ms);
#X text 294 410 using the inlets \, 1: num measures \, 2 num quarters
;
#X text 295 431 num 16ths;
#X text 296 333 MEASURES:BEATS:SIXTHEENTHS to absolute time in ms;
#X obj 105 127 t b f;
#X obj 206 132 t b f;
#X obj 321 138 t b f;
#X obj 156 182 t b f;
#X obj 269 196 t b f;
#X connect 0 0 4 0;
#X connect 1 0 6 0;
#X connect 2 0 5 0;
#X connect 3 0 10 0;
#X connect 4 0 3 0;
#X connect 5 0 25 0;
#X connect 6 0 26 0;
#X connect 7 0 22 0;
#X connect 8 0 23 0;
#X connect 9 0 24 0;
#X connect 22 0 4 0;
#X connect 22 1 4 1;
#X connect 23 0 5 0;
#X connect 23 1 5 1;
#X connect 24 0 6 0;
#X connect 24 1 6 1;
#X connect 25 0 3 0;
#X connect 25 1 3 1;
#X connect 26 0 3 0;
#X connect 26 1 3 2;
